<svg width="48" height="48" viewBox="0 0 48 48" fill="none" xmlns="http://www.w3.org/2000/svg">
<g clip-path="url(#clip0_205_76)">
<path d="M48 0H0V48H48V0Z" fill="#00005B"/>
<path fill-rule="evenodd" clip-rule="evenodd" d="M12.7712 28.6595H20.0464V28.5614L21.65 33.271C21.6891 33.4084 21.826 33.5065 21.9629 33.4869H26.0503C26.2459 33.4869 26.3046 33.3888 26.2459 33.1729L19.1076 13.157C19.0881 13.0589 18.9903 13 18.8534 13H13.7881C13.6903 13.0196 13.6121 13.1177 13.6317 13.2159C13.6317 13.6476 13.5926 14.0793 13.5143 14.4914C13.4361 14.7268 13.3774 14.9035 13.3188 15.0997L7.02143 33.2122C6.96275 33.4477 7.02143 33.5654 7.23655 33.5654H10.9133C11.0893 33.585 11.2457 33.4673 11.2848 33.2907L12.7712 28.6595ZM18.8729 24.7545H13.9055C14.1988 23.9303 14.5117 23.008 14.766 22.0072C14.9597 21.3997 15.1459 20.7923 15.3293 20.1941C15.4421 19.8261 15.5539 19.4617 15.6656 19.1029C15.9394 18.2591 16.1545 17.4153 16.3305 16.5715H16.3696C16.446 16.834 16.5223 17.1087 16.602 17.3957C16.6653 17.6235 16.7307 17.8589 16.7999 18.1021C16.9564 18.6712 17.1324 19.2403 17.3279 19.8486C17.4257 20.1527 17.5186 20.452 17.6115 20.7512C17.7044 21.0505 17.7973 21.3498 17.8951 21.654C18.0711 22.2427 18.2471 22.8117 18.4231 23.3416C18.5991 23.8518 18.7556 24.3424 18.8729 24.7545Z" fill="#9999FF"/>
<path fill-rule="evenodd" clip-rule="evenodd" d="M31.5655 26.8933H37.7651C38.0271 26.8933 38.2788 26.9142 38.5227 26.9344C38.7521 26.9534 38.9747 26.9718 39.1927 26.9718C39.6426 26.9718 40.0141 26.9522 40.3271 26.913C40.4369 26.9061 40.5347 26.8992 40.6204 26.8932C40.7789 26.882 40.8963 26.8737 40.9724 26.8737C41.1093 26.8737 41.2267 26.756 41.2462 26.6186C41.2549 26.54 41.2636 26.4419 41.2741 26.3243C41.2871 26.1778 41.3028 26.0012 41.3245 25.7944C41.344 25.4216 41.3636 25.0095 41.3636 24.5385C41.3636 23.734 41.2462 22.9294 40.992 22.1445C40.7377 21.3203 40.327 20.5746 39.8186 19.9074C39.271 19.2206 38.5669 18.6907 37.7651 18.3375C36.8068 17.9058 35.7703 17.7096 34.7338 17.7292C33.4821 17.7292 32.3869 17.8862 31.4677 18.3375C30.5486 18.7889 29.7467 19.4168 29.1014 20.2017C28.4364 21.0063 27.9475 21.909 27.6346 22.8902C27.3021 23.9106 27.1457 24.9506 27.1457 26.0103C27.1457 26.9915 27.2826 27.953 27.5564 28.8753C27.8302 29.8172 28.28 30.6807 28.9058 31.446C29.5707 32.2506 30.4117 32.8981 31.37 33.3102C32.3869 33.7616 33.6386 33.997 35.1249 33.997C36.0636 34.0167 36.9828 33.9382 37.902 33.7616C38.5865 33.6438 39.2319 33.4476 39.8577 33.1729C39.9164 33.1336 39.9555 33.0944 39.9946 33.0355C40.0141 32.957 40.0337 32.8785 40.0337 32.8V29.7976C40.0337 29.6014 39.975 29.5621 39.8772 29.6406C39.3296 29.8565 38.7429 30.0135 38.1367 30.092C37.4717 30.2293 36.7872 30.2882 36.1027 30.3078C35.2422 30.3275 34.3817 30.1508 33.5995 29.8172C33.0127 29.5818 32.5238 29.1697 32.1718 28.6398C31.8393 28.11 31.6438 27.5017 31.5655 26.8933ZM35.6921 24.0283H31.5655C31.6242 23.5377 31.7611 23.0668 31.9958 22.6154C32.5043 21.6343 33.5212 21.0652 34.5969 21.124C35.7507 21.0848 36.7872 21.8305 37.1393 22.9294C37.2175 23.1649 37.2566 23.4004 37.2566 23.6555V23.8517C37.1197 23.9498 36.9633 23.9891 36.8068 24.0087C36.5721 24.0283 36.2005 24.0283 35.6921 24.0283Z" fill="#9999FF"/>
</g>
<rect x="0.5" y="0.5" width="47" height="47" rx="9.5" stroke="black" stroke-opacity="0.1"/>
<defs>
<clipPath id="clip0_205_76">
<rect width="48" height="48" rx="10" fill="white"/>
</clipPath>
</defs>
</svg>
