<svg width="48" height="48" viewBox="0 0 48 48" fill="none" xmlns="http://www.w3.org/2000/svg">
<g clip-path="url(#clip0_205_91)">
<path d="M48 10C48 4.47715 43.5228 0 38 0H10C4.47715 0 0 4.47715 0 10V38C0 43.5228 4.47715 48 10 48H38C43.5228 48 48 43.5228 48 38V10Z" fill="#470137"/>
<path fill-rule="evenodd" clip-rule="evenodd" d="M30.0418 34.1436C31.3156 34.733 32.7224 35.0181 34.1293 34.9991C35.1178 34.9991 36.0874 34.9041 37.057 34.733C38.1216 34.5428 39.1673 34.2387 40.1559 33.8204C40.2889 33.7634 40.346 33.6493 40.346 33.5162C40.343 33.4664 40.3401 33.4152 40.3371 33.3628C40.3206 33.0754 40.3021 32.7513 40.2699 32.4136C40.2682 32.3751 40.2664 32.3371 40.2647 32.2993C40.2476 31.9258 40.2319 31.5837 40.2319 31.2729V13.136C40.2129 13.06 40.1368 12.9839 40.0418 13.003H36.1825C36.0494 13.003 35.9924 13.079 35.9924 13.2121V19.2197C35.8868 19.2109 35.7894 19.2061 35.6982 19.2017C35.5924 19.1966 35.4949 19.1919 35.403 19.1817C35.2319 19.1626 35.0988 19.1626 35.0038 19.1626C33.1217 19.1626 31.5247 19.5239 30.1939 20.2653C28.9391 20.9497 27.8935 21.9763 27.1711 23.2121C26.4677 24.4288 26.1065 25.8166 26.1255 27.2235C26.1255 28.9535 26.4677 30.3984 27.1711 31.5581C27.8555 32.6797 28.8441 33.5923 30.0418 34.1436ZM35.9924 22.8318V31.1968C35.7642 31.2729 35.5551 31.3109 35.308 31.2919C35.0608 31.3109 34.7947 31.3299 34.5095 31.3299C33.9772 31.3299 33.4448 31.2539 32.9315 31.0828C32.4372 30.9307 32 30.6645 31.6388 30.3223C31.2585 29.9421 30.9734 29.4858 30.7833 28.9725C30.5551 28.3451 30.4411 27.6797 30.4601 27.0143C30.4601 26.0257 30.6692 25.2083 31.0874 24.5999C31.5057 23.9915 32.057 23.5162 32.7034 23.193C33.3688 22.8508 34.1102 22.6988 34.8517 22.6988C35.0608 22.6988 35.2699 22.7178 35.479 22.7368C35.6501 22.7558 35.8213 22.7938 35.9924 22.8318Z" fill="#FF61F6"/>
<path d="M19.6424 24.3527L25.3458 14.9421C25.3839 14.9041 25.4219 14.8281 25.4029 14.809C25.3839 14.714 25.2888 14.657 25.1937 14.676H21.1823C21.0873 14.657 21.0112 14.676 20.9352 14.714C20.8782 14.752 20.8401 14.8281 20.8211 14.9041C20.6504 15.2222 20.4797 15.5466 20.3078 15.8735C20.0583 16.3476 19.8062 16.8269 19.5474 17.2995C19.1101 18.098 18.6728 18.8965 18.2546 19.695C17.8363 20.4934 17.4181 21.3109 17.0188 22.1474H16.9808C16.5816 21.3299 16.1633 20.5315 15.7071 19.733C15.3181 19.0795 14.9546 18.426 14.5852 17.7621C14.5033 17.6148 14.4211 17.467 14.3382 17.3185C13.901 16.5011 13.4827 15.6836 13.1215 14.8661C13.0645 14.79 13.0074 14.733 12.9314 14.695C12.8554 14.676 12.7603 14.657 12.6652 14.657H8.34966C8.27362 14.657 8.19757 14.676 8.15955 14.733C8.12153 14.771 8.14054 14.8471 8.19757 14.9231L13.958 24.6759L8.04548 34.3717C8.00746 34.4288 7.98845 34.5048 8.00746 34.5809C8.00746 34.6528 8.04009 34.6485 8.08889 34.6422C8.10461 34.6402 8.12201 34.6379 8.14054 34.6379H12.323C12.5322 34.6379 12.6843 34.6189 12.7603 34.4288C13.0518 33.9091 13.3433 33.3726 13.6348 32.8361C13.7806 32.5678 13.9263 32.2995 14.0721 32.0333C14.4903 31.235 14.9275 30.4176 15.3647 29.6002C15.802 28.7827 16.2394 27.9649 16.6386 27.1474H16.6766C17.1329 27.9839 17.5891 28.8013 18.0454 29.6188C18.5017 30.4363 18.939 31.2349 19.3382 32.0143C19.5379 32.4136 19.7422 32.8081 19.9466 33.2025C20.151 33.597 20.3553 33.9915 20.555 34.3908C20.688 34.5809 20.8972 34.5999 21.2013 34.5999H25.555C25.599 34.5925 25.6374 34.5965 25.669 34.5998C25.7193 34.6051 25.7524 34.6085 25.7641 34.5619C25.7831 34.4858 25.7641 34.4098 25.7261 34.3337L19.6424 24.3527Z" fill="#FF61F6"/>
</g>
<rect x="0.5" y="0.5" width="47" height="47" stroke="black" stroke-opacity="0.1"/>
<defs>
<clipPath id="clip0_205_91">
<rect width="48" height="48" fill="white"/>
</clipPath>
</defs>
</svg>
