<svg width="48" height="48" viewBox="0 0 48 48" fill="none" xmlns="http://www.w3.org/2000/svg">
<g clip-path="url(#clip0_205_79)">
<path d="M48 10C48 4.47715 43.5228 0 38 0H10C4.47715 0 0 4.47715 0 10V38C0 43.5228 4.47715 48 10 48H38C43.5228 48 48 43.5228 48 38V10Z" fill="#330000"/>
<path d="M32.297 16.3771C32.7863 16.8432 33.4388 17.1066 34.1117 17.0863C34.8049 17.1269 35.4981 16.8634 35.9671 16.3771C36.4564 15.8705 36.7011 15.2018 36.6807 14.5128C36.7011 13.8441 36.4564 13.1956 36.0079 12.7093C35.5593 12.2432 34.9476 12 34.1524 12C33.4796 12 32.8271 12.2432 32.3378 12.7093C31.8484 13.1753 31.5834 13.8238 31.6038 14.5128C31.5834 15.2018 31.828 15.8705 32.297 16.3771Z" fill="#FF9A00"/>
<path d="M31.828 19.0722V34.6758C31.828 34.8784 31.93 35 32.1339 35H36.1302C36.3137 35 36.3953 34.8987 36.3953 34.6758V19.0722C36.3953 18.8899 36.3137 18.7885 36.1302 18.7885H32.0931C31.9096 18.7885 31.828 18.8696 31.828 19.0722Z" fill="#FF9A00"/>
<path fill-rule="evenodd" clip-rule="evenodd" d="M15.5168 29.8527H23.1017L24.7736 34.6756C24.8144 34.8175 24.9571 34.9188 25.0998 34.8985H29.3612C29.5651 34.8985 29.6263 34.7972 29.5651 34.5743L22.123 13.7021C22.1026 13.6007 22.021 13.5399 21.8579 13.5399H16.5771C16.4751 13.5602 16.3936 13.6615 16.4139 13.7629C16.4139 14.2087 16.3732 14.6545 16.2916 15.08C16.2338 15.2523 16.1863 15.4144 16.1417 15.5664C16.1234 15.6289 16.1055 15.6897 16.0877 15.7488L9.52234 34.5338C9.46117 34.777 9.52234 34.8985 9.74662 34.8985H13.5798C13.7633 34.9188 13.9264 34.7972 13.9672 34.6148L15.5168 29.8527ZM21.8783 25.7391H16.6994C17.0052 24.888 17.3111 23.9355 17.5965 22.9021C17.7985 22.2748 17.9927 21.6475 18.1838 21.0298C18.3015 20.6498 18.4179 20.2734 18.5344 19.9029C18.8199 19.0316 19.0442 18.1602 19.2277 17.2888H19.2685C19.348 17.5599 19.4276 17.8436 19.5107 18.1399C19.5766 18.3752 19.6448 18.6184 19.717 18.8695C19.8801 19.4571 20.0636 20.0448 20.2675 20.673C20.3695 20.9871 20.4663 21.2961 20.5632 21.6051C20.66 21.9142 20.7569 22.2232 20.8588 22.5373C21.0423 23.1452 21.2258 23.7329 21.4093 24.28C21.5928 24.8069 21.756 25.3135 21.8783 25.7391Z" fill="#FF9A00"/>
</g>
<rect x="0.5" y="0.5" width="47" height="47" stroke="black" stroke-opacity="0.1"/>
<defs>
<clipPath id="clip0_205_79">
<rect width="48" height="48" fill="white"/>
</clipPath>
</defs>
</svg>
