<svg width="48" height="48" viewBox="0 0 48 48" fill="none" xmlns="http://www.w3.org/2000/svg">
<g clip-path="url(#clip0_205_82)">
<path d="M48 10C48 4.47715 43.5228 0 38 0H10C4.47715 0 0 4.47715 0 10V38C0 43.5228 4.47715 48 10 48H38C43.5228 48 48 43.5228 48 38V10Z" fill="#49021F"/>
<path fill-rule="evenodd" clip-rule="evenodd" d="M25.4484 34.6771C26.8146 35.3092 28.3234 35.615 29.8323 35.5946C30.8926 35.5946 31.9529 35.4927 32.9724 35.3092C34.1143 35.1053 35.2357 34.779 36.296 34.3304C36.4387 34.2693 36.4999 34.1469 36.4999 34.0042C36.4968 33.9507 36.4936 33.8958 36.4904 33.8396C36.4727 33.5313 36.4528 33.1837 36.4184 32.8216C36.4165 32.7804 36.4146 32.7397 36.4128 32.6992C36.3944 32.2986 36.3776 31.9315 36.3776 31.5982V12.1459C36.3572 12.0643 36.2756 11.9828 36.1737 12.0032H32.0345C31.8917 12.0032 31.8306 12.0847 31.8306 12.2275V18.6708C31.7173 18.6613 31.6129 18.6563 31.5151 18.6515C31.4015 18.646 31.2971 18.6409 31.1985 18.63C31.0149 18.6096 30.8722 18.6096 30.7703 18.6096C28.7516 18.6096 27.0389 18.997 25.6115 19.7922C24.2658 20.5263 23.1443 21.6273 22.3695 22.9527C21.6151 24.2577 21.2276 25.7462 21.248 27.255C21.248 29.1106 21.6151 30.6602 22.3695 31.904C23.1035 33.107 24.1638 34.0858 25.4484 34.6771ZM31.8306 22.5449V31.5166C31.6063 31.5982 31.3616 31.6389 31.0965 31.6185C30.8314 31.6389 30.546 31.6593 30.2401 31.6593C29.6692 31.6593 29.0983 31.5778 28.5477 31.3943C28.0176 31.2311 27.5486 30.9457 27.1612 30.5786C26.7534 30.1708 26.4475 29.6815 26.2436 29.1309C25.999 28.4581 25.8766 27.7444 25.897 27.0308C25.897 25.9705 26.1213 25.0937 26.5699 24.4412C27.0185 23.7887 27.6098 23.279 28.303 22.9323C29.0167 22.5653 29.8119 22.4022 30.6071 22.4022C30.8314 22.4022 31.0557 22.4226 31.28 22.443C31.4635 22.4633 31.647 22.5041 31.8306 22.5449Z" fill="#FF3366"/>
<path d="M18.047 35.0237V14.0218C18.047 14.0014 18.047 13.981 18.0266 13.9606C18.0062 13.8179 17.8839 13.7363 17.7616 13.7567H13.7855C13.602 13.7567 13.5 13.8383 13.5 14.0218V35.0237C13.5 35.248 13.5816 35.3499 13.7651 35.3499H17.7616C17.9451 35.3499 18.047 35.248 18.047 35.0237Z" fill="#FF3366"/>
</g>
<rect x="0.5" y="0.5" width="47" height="47" stroke="black" stroke-opacity="0.1"/>
<defs>
<clipPath id="clip0_205_82">
<rect width="48" height="48" fill="white"/>
</clipPath>
</defs>
</svg>
