<svg width="48" height="48" viewBox="0 0 48 48" fill="none" xmlns="http://www.w3.org/2000/svg">
<g clip-path="url(#clip0_205_85)">
<path d="M48 10C48 4.47715 43.5228 0 38 0H10C4.47715 0 0 4.47715 0 10V38C0 43.5228 4.47715 48 10 48H38C43.5228 48 48 43.5228 48 38V10Z" fill="#00005B"/>
<path fill-rule="evenodd" clip-rule="evenodd" d="M10.5 13.3525V34.6865C10.5 34.8731 10.5828 34.956 10.7483 34.956H14.7631C14.908 34.9353 15.0114 34.8109 14.9907 34.6657V28.0105C15.3839 28.0105 15.6737 28.0105 15.8806 28.0313C16.0876 28.052 16.4186 28.052 16.9152 28.052C18.6122 28.052 20.1644 27.8654 21.5717 27.3471C22.9168 26.8495 24.0757 25.9787 24.9035 24.8177C25.7313 23.6566 26.1452 22.1846 26.1452 20.4016C26.1452 19.4686 25.9796 18.5771 25.6692 17.7063C25.3381 16.8148 24.8207 16.0063 24.1585 15.3428C23.3721 14.5757 22.4201 13.9952 21.3854 13.6427C20.2265 13.2073 18.8193 13 17.1223 13C16.5015 13 15.8806 13 15.2391 13.0207C14.9294 13.0307 14.6293 13.0359 14.3389 13.0409C14.0277 13.0463 13.7276 13.0515 13.4386 13.0622C13.1676 13.0723 12.9064 13.0774 12.6525 13.0825C12.3829 13.0878 12.1216 13.093 11.8659 13.1037C11.3899 13.1244 11.0588 13.1244 10.7069 13.1244C10.5621 13.1244 10.5 13.2073 10.5 13.3525ZM15.0114 24.1128V17.1466C15.1563 17.1258 15.446 17.1051 15.8599 17.1258C16.2531 17.1051 16.7291 17.1051 17.2672 17.1051C18.1157 17.0844 18.9434 17.2088 19.7091 17.5197C20.3093 17.7478 20.806 18.1625 21.1578 18.7015C21.4889 19.2613 21.6544 19.904 21.6338 20.5467C21.6338 21.459 21.4268 22.1639 20.9922 22.6822C20.5369 23.2005 19.9575 23.5944 19.2952 23.781C18.5295 24.0298 17.7225 24.1542 16.9154 24.1542H15.8185C15.588 24.1542 15.3397 24.1364 15.0735 24.1172C15.0529 24.1157 15.0322 24.1143 15.0114 24.1128Z" fill="#9999FF"/>
<path d="M32.7468 18.3697H29.1252C29.1045 18.349 29.0631 18.349 29.0631 18.3697C28.9596 18.3904 28.8976 18.4941 28.9182 18.5977L28.9232 18.6549C28.9629 19.1111 29.001 19.5498 29.001 20.0076C29.0114 20.2771 29.0165 20.5466 29.0217 20.8162C29.0269 21.0857 29.0321 21.3552 29.0424 21.6247C29.0631 22.1637 29.0631 22.682 29.0631 23.1796V34.7486C29.0838 34.9144 29.2287 35.0181 29.3942 34.9974H33.4711C33.6573 34.9974 33.7401 34.9144 33.7401 34.7071V24.1334C34.0298 23.8017 34.4023 23.5529 34.7955 23.3663C35.3543 23.1175 35.9338 22.9309 36.5339 22.8065C37.2582 22.6406 38.0239 22.5784 38.7689 22.5992C38.9966 22.5992 39.1 22.537 39.1 22.3711V18.2453C39.0793 18.1002 38.9552 17.9965 38.8103 18.0172C37.7135 18.0172 36.6167 18.2868 35.6647 18.8258C34.8162 19.2819 34.0712 19.8832 33.4504 20.6088C33.4504 20.3393 33.4297 20.0905 33.409 19.8624C33.3883 19.6551 33.3469 19.4271 33.3055 19.2197C33.2848 19.0331 33.2434 18.8673 33.1814 18.7014C33.1193 18.5148 32.9537 18.3697 32.7468 18.3697Z" fill="#9999FF"/>
</g>
<rect x="0.5" y="0.5" width="47" height="47" stroke="black" stroke-opacity="0.1"/>
<defs>
<clipPath id="clip0_205_85">
<rect width="48" height="48" fill="white"/>
</clipPath>
</defs>
</svg>
