<svg width="48" height="48" viewBox="0 0 48 48" fill="none" xmlns="http://www.w3.org/2000/svg">
<g clip-path="url(#clip0_205_261)">
<path d="M48 0H0V48H48V0Z" fill="white"/>
<path fill-rule="evenodd" clip-rule="evenodd" d="M13.5181 13.4484C14.5556 14.2913 14.9448 14.227 16.8932 14.097L35.2608 12.9941C35.6504 12.9941 35.3264 12.6055 35.1965 12.5409L32.1461 10.3357C31.5615 9.88186 30.7828 9.36218 29.2903 9.49218L11.5049 10.7894C10.8563 10.8537 10.7267 11.178 10.985 11.438L13.5181 13.4484ZM14.6208 17.729V37.055C14.6208 38.0936 15.1399 38.4822 16.3081 38.4179L36.4941 37.2499C37.6629 37.1856 37.7931 36.4712 37.7931 35.6275V16.4312C37.7931 15.5888 37.469 15.1346 36.7536 15.1994L15.659 16.4312C14.8805 16.4966 14.6208 16.886 14.6208 17.729ZM34.5485 18.7657C34.6779 19.3499 34.5485 19.9336 33.9631 19.9993L32.9905 20.1931V34.4608C32.1461 34.9147 31.3674 35.1741 30.7185 35.1741C29.6796 35.1741 29.4193 34.8496 28.6412 33.8774L22.2792 23.8899V33.5531L24.2924 34.0073C24.2924 34.0073 24.2924 35.1741 22.6682 35.1741L18.1906 35.4339C18.0605 35.1741 18.1906 34.5262 18.6448 34.3964L19.8132 34.0725V21.296L18.1909 21.166C18.0608 20.5817 18.3848 19.7393 19.2942 19.6739L24.0976 19.3501L30.7185 29.4676V20.5174L29.0304 20.3237C28.9008 19.6094 29.4193 19.0908 30.0685 19.0264L34.5485 18.7657ZM10.0116 9.03845L28.5113 7.67607C30.7831 7.48123 31.3676 7.61176 32.7955 8.64897L38.7008 12.7996C39.6752 13.5133 40 13.7076 40 14.4857V37.2499C40 38.6765 39.4802 39.5203 37.6632 39.6494L16.1795 40.9467C14.8155 41.0117 14.1663 40.8174 13.452 39.9089L9.10322 34.2665C8.32406 33.2279 8 32.4509 8 31.5419V11.3075C8 10.1408 8.51988 9.1676 10.0116 9.03845Z" fill="black"/>
</g>
<rect x="0.5" y="0.5" width="47" height="47" stroke="black" stroke-opacity="0.1"/>
<defs>
<clipPath id="clip0_205_261">
<rect width="48" height="48" fill="white"/>
</clipPath>
</defs>
</svg>
